<svg xmlns="http://www.w3.org/2000/svg" viewBox="0 0 321.000000 313.000000">
  <title>LinkedIn</title>
  <g fill="#4dc515"><g transform="translate(0.000000,313.000000) scale(0.100000,-0.100000)"
>
<path d="M402 3040 c-13 -6 -34 -7 -48 -4 -39 10 -111 -31 -134 -77 -11 -21
-20 -44 -20 -51 0 -7 -9 -30 -20 -51 -23 -42 -25 -82 -9 -124 6 -15 13 -64 15
-109 2 -44 12 -122 23 -174 18 -82 20 -116 15 -289 -3 -108 -12 -245 -20 -306
-7 -60 -16 -139 -19 -175 -3 -36 -13 -103 -22 -150 -8 -48 -19 -185 -23 -315
-7 -191 -12 -241 -29 -293 -28 -86 -27 -154 4 -219 53 -116 58 -253 11 -343
-33 -62 -34 -116 -3 -161 42 -63 183 -93 276 -57 19 7 29 4 45 -11 43 -40 85
-50 171 -40 150 17 1391 17 1450 0 49 -13 434 -15 520 -1 33 5 90 16 128 24
59 13 71 13 102 0 19 -7 44 -14 56 -14 40 0 89 32 114 74 21 36 23 53 23 146
-1 102 6 182 38 416 16 121 13 226 -12 365 -16 89 -14 125 19 329 5 36 11 146
12 245 1 135 6 195 19 240 10 36 16 91 15 135 -1 41 3 129 7 195 14 192 9 330
-15 405 -11 36 -21 75 -21 88 0 20 -21 68 -65 152 -22 42 -85 79 -165 97 -97
21 -221 21 -280 -2 -25 -9 -54 -16 -65 -15 -11 1 -60 2 -110 4 -61 2 -100 8
-121 19 -73 40 -410 47 -632 13 -94 -14 -94 -14 -129 10 -32 21 -47 24 -130
24 -52 0 -156 -6 -231 -14 -75 -8 -223 -20 -328 -27 l-191 -12 -59 27 c-67 31
-128 40 -162 26z m590 -508 c103 -71 126 -216 53 -333 -72 -113 -273 -176
-381 -121 -155 80 -152 268 7 401 90 76 129 92 209 89 54 -3 73 -9 112 -36z
m636 -543 c45 -22 78 -64 89 -111 l5 -28 36 32 c45 39 137 82 222 104 85 22
178 14 293 -25 108 -37 144 -59 198 -119 93 -105 134 -247 150 -527 5 -88 13
-196 19 -240 6 -44 14 -145 19 -225 4 -80 11 -152 15 -161 4 -10 2 -35 -3 -57
-21 -76 -111 -128 -180 -104 -24 9 -40 7 -79 -10 -95 -40 -162 -3 -208 112
l-27 69 12 121 c7 66 10 124 7 128 -3 5 -10 47 -16 94 -5 47 -19 111 -30 142
-10 31 -24 92 -31 136 -6 44 -15 83 -20 86 -5 2 -13 22 -18 42 -16 59 -56 77
-166 77 -105 0 -161 -21 -184 -70 -18 -37 -22 -162 -9 -277 7 -63 6 -126 -4
-225 -12 -131 -12 -163 -6 -300 4 -81 -19 -110 -116 -151 -83 -35 -101 -37
-158 -20 -61 18 -105 74 -114 145 -12 99 -13 119 -23 438 -5 171 -15 366 -21
435 -7 69 -9 159 -6 200 7 79 7 90 4 143 -2 40 30 91 74 113 37 19 164 53 202
53 16 1 50 -9 74 -20z m-670 -18 c43 -30 67 -97 53 -147 -15 -53 -14 -100 4
-197 53 -302 62 -445 36 -607 -6 -37 -8 -111 -5 -170 14 -234 -54 -333 -247
-360 -67 -10 -76 -9 -118 12 -35 18 -52 34 -70 71 -23 47 -23 48 -6 95 25 68
30 164 12 247 -21 93 -37 250 -37 355 0 47 -5 142 -12 211 -14 155 0 352 30
402 29 50 80 80 124 73 29 -5 45 -1 75 20 31 21 47 25 84 22 26 -3 60 -15 77
-27z"/>
</g></g>
</svg>
