<?xml version="1.0" standalone="no"?>
<!DOCTYPE svg PUBLIC "-//W3C//DTD SVG 20010904//EN"
 "http://www.w3.org/TR/2001/REC-SVG-20010904/DTD/svg10.dtd">
<svg version="1.0" xmlns="http://www.w3.org/2000/svg"
 width="454.000000pt" height="100.000000pt" viewBox="0 0 454.000000 100.000000"
 preserveAspectRatio="xMidYMid meet">
<metadata>
Created by potrace 1.16, written by Peter Selinger 2001-2019
</metadata>
<g transform="translate(0.000000,100.000000) scale(0.100000,-0.100000)"
fill="#4dc515" stroke="none">
<path d="M3690 971 c-22 -42 1 -215 40 -290 25 -49 47 -47 -205 -24 -301 27
-1282 24 -1900 -6 -258 -12 -704 -26 -990 -30 -568 -7 -556 -6 -604 -67 -53
-68 -26 -170 55 -206 47 -20 56 -20 603 -15 359 3 718 13 1011 27 802 40 1588
34 2015 -16 168 -19 166 -19 119 -53 -21 -16 -70 -64 -108 -106 -77 -86 -157
-150 -201 -161 l-30 -8 39 -7 c52 -9 283 8 368 26 37 8 102 32 145 54 162 81
289 154 318 182 28 26 38 29 97 29 86 0 93 16 32 67 -25 21 -71 62 -102 92
-32 29 -106 90 -167 136 -60 45 -150 119 -199 164 -64 59 -115 95 -177 126
-47 24 -98 58 -112 74 -30 36 -33 37 -47 12z"/>
</g>
</svg>
