<svg xmlns="http://www.w3.org/2000/svg" viewBox="0 0 190 170" shape-rendering="crispEdges">
	<g fill="#F8F8F9">
		<!-- M -->
		<rect x="10" y="10" width="10" height="10"/>
		<rect x="50" y="10" width="10" height="10"/>
		<rect x="10" y="20" width="10" height="10"/>
		<rect x="20" y="20" width="10" height="10"/>
		<rect x="40" y="20" width="10" height="10"/>
		<rect x="50" y="20" width="10" height="10"/>
		<rect x="10" y="30" width="10" height="10"/>
		<rect x="30" y="30" width="10" height="10"/>
		<rect x="50" y="30" width="10" height="10"/>
		<rect x="10" y="40" width="10" height="10"/>
		<rect x="30" y="40" width="10" height="10"/>
		<rect x="50" y="40" width="10" height="10"/>
		<rect x="10" y="50" width="10" height="10"/>
		<rect x="50" y="50" width="10" height="10"/>
		<rect x="10" y="60" width="10" height="10"/>
		<rect x="50" y="60" width="10" height="10"/>
		<rect x="10" y="70" width="10" height="10"/>
		<rect x="50" y="70" width="10" height="10"/>
		<!-- o -->
		<rect x="80" y="30" width="10" height="10"/>
		<rect x="90" y="30" width="10" height="10"/>
		<rect x="100" y="30" width="10" height="10"/>
		<rect x="70" y="40" width="10" height="10"/>
		<rect x="110" y="40" width="10" height="10"/>
		<rect x="70" y="50" width="10" height="10"/>
		<rect x="110" y="50" width="10" height="10"/>
		<rect x="70" y="60" width="10" height="10"/>
		<rect x="110" y="60" width="10" height="10"/>
		<rect x="80" y="70" width="10" height="10"/>
		<rect x="90" y="70" width="10" height="10"/>
		<rect x="100" y="70" width="10" height="10"/>
		<!-- Q -->
		<rect x="140" y="10" width="10" height="10"/>
		<rect x="150" y="10" width="10" height="10"/>
		<rect x="160" y="10" width="10" height="10"/>
		<rect x="130" y="20" width="10" height="10"/>
		<rect x="170" y="20" width="10" height="10"/>
		<rect x="130" y="30" width="10" height="10"/>
		<rect x="170" y="30" width="10" height="10"/>
		<rect x="130" y="40" width="10" height="10"/>
		<rect x="170" y="40" width="10" height="10"/>
		<rect x="130" y="50" width="10" height="10"/>
		<rect x="150" y="50" width="10" height="10"/>
		<rect x="170" y="50" width="10" height="10"/>
		<rect x="130" y="60" width="10" height="10"/>
		<rect x="160" y="60" width="10" height="10"/>
		<rect x="170" y="60" width="10" height="10"/>
		<rect x="140" y="70" width="10" height="10"/>
		<rect x="150" y="70" width="10" height="10"/>
		<rect x="160" y="70" width="10" height="10"/>
		<rect x="170" y="70" width="10" height="10"/>
	</g>
	<g fill="#00BE2D">
		<!-- B -->
		<rect x="10" y="90" width="10" height="10"/>
		<rect x="20" y="90" width="10" height="10"/>
		<rect x="30" y="90" width="10" height="10"/>
		<rect x="40" y="90" width="10" height="10"/>
		<rect x="10" y="100" width="10" height="10"/>
		<rect x="50" y="100" width="10" height="10"/>
		<rect x="10" y="110" width="10" height="10"/>
		<rect x="50" y="110" width="10" height="10"/>
		<rect x="10" y="120" width="10" height="10"/>
		<rect x="20" y="120" width="10" height="10"/>
		<rect x="30" y="120" width="10" height="10"/>
		<rect x="40" y="120" width="10" height="10"/>
		<rect x="10" y="130" width="10" height="10"/>
		<rect x="50" y="130" width="10" height="10"/>
		<rect x="10" y="140" width="10" height="10"/>
		<rect x="50" y="140" width="10" height="10"/>
		<rect x="10" y="150" width="10" height="10"/>
		<rect x="20" y="150" width="10" height="10"/>
		<rect x="30" y="150" width="10" height="10"/>
		<rect x="40" y="150" width="10" height="10"/>
		<!-- O -->
		<rect x="80" y="90" width="10" height="10"/>
		<rect x="90" y="90" width="10" height="10"/>
		<rect x="100" y="90" width="10" height="10"/>
		<rect x="70" y="100" width="10" height="10"/>
		<rect x="110" y="100" width="10" height="10"/>
		<rect x="70" y="110" width="10" height="10"/>
		<rect x="110" y="110" width="10" height="10"/>
		<rect x="70" y="120" width="10" height="10"/>
		<rect x="110" y="120" width="10" height="10"/>
		<rect x="70" y="130" width="10" height="10"/>
		<rect x="110" y="130" width="10" height="10"/>
		<rect x="70" y="140" width="10" height="10"/>
		<rect x="110" y="140" width="10" height="10"/>
		<rect x="80" y="150" width="10" height="10"/>
		<rect x="90" y="150" width="10" height="10"/>
		<rect x="100" y="150" width="10" height="10"/>
		<!-- Y -->
		<rect x="130" y="90" width="10" height="10"/>
		<rect x="170" y="90" width="10" height="10"/>
		<rect x="130" y="100" width="10" height="10"/>
		<rect x="170" y="100" width="10" height="10"/>
		<rect x="140" y="110" width="10" height="10"/>
		<rect x="160" y="110" width="10" height="10"/>
		<rect x="140" y="120" width="10" height="10"/>
		<rect x="160" y="120" width="10" height="10"/>
		<rect x="150" y="130" width="10" height="10"/>
		<rect x="150" y="140" width="10" height="10"/>
		<rect x="150" y="150" width="10" height="10"/>
	</g>
</svg>
