<svg xmlns="http://www.w3.org/2000/svg" width="100%" viewBox="8 0 70 150" preserveAspectRatio="xMidYMid meet">
<path fill="#00BE2D" opacity="1.000000" stroke="none" 
	d="
M57.403713,54.420609 
	C57.955799,52.399296 58.898407,50.279385 58.271343,48.846302 
	C54.382683,39.959221 47.307968,34.570389 37.853149,33.224285 
	C34.615528,32.763336 30.908005,34.670410 27.588497,35.946476 
	C23.160563,37.648643 18.901718,39.790672 14.389014,41.825493 
	C13.001698,28.395857 23.358904,18.403694 37.135895,19.146538 
	C51.512257,19.921698 66.711197,31.848610 70.949837,45.681026 
	C73.685341,54.608078 70.216286,62.605289 61.446209,65.981308 
	C56.570793,67.858078 51.264473,68.615456 45.484249,70.042244 
	C45.484249,72.743156 46.001892,76.267906 45.292416,79.525406 
	C44.858574,81.517326 42.539856,83.098724 41.067665,84.864494 
	C39.307537,83.371071 36.500980,82.173683 35.979374,80.329880 
	C34.271290,74.292099 33.000782,68.061905 32.323372,61.823025 
	C31.788050,56.892792 35.970009,53.924213 41.042702,55.483345 
	C46.599579,57.191296 51.828045,56.846359 57.403713,54.420609 
z"/>
<path fill="#00BD2D" opacity="1.000000" stroke="none" 
	d="
M49.150608,118.120567 
	C46.343910,127.736870 32.990261,126.275742 27.687849,120.800156 
	C24.800699,117.818718 25.106327,111.858322 28.197552,108.554916 
	C31.729353,104.780693 36.694733,103.933144 41.901863,106.215675 
	C47.092533,108.491005 49.660450,112.508423 49.150608,118.120567 
z"/>
</svg>
