<svg version="1.1" id="Layer_1" xmlns="http://www.w3.org/2000/svg" xmlns:xlink="http://www.w3.org/1999/xlink" x="0px" y="0px"
	 width="100%" viewBox="-25 0 500 150" enable-background="new -25 0 500 150" xml:space="preserve">

<path fill="#F9FAFA" transform="translate(10,0)" opacity="1.000000" stroke="none" 
	d="
M314.428467,151.000000 
	C311.897156,149.217560 309.629272,147.592209 307.739471,145.606964 
	C305.972809,143.751068 304.607208,141.513397 303.189667,138.928940 
	C309.226837,142.285446 313.396790,139.199677 317.817352,135.831451 
	C340.959198,118.198578 339.166107,90.048294 328.787659,71.142067 
	C327.894653,69.515259 326.485931,68.171570 324.254395,67.214218 
	C325.102814,72.174393 325.523590,77.255646 326.886627,82.070114 
	C329.937805,92.847038 321.366333,104.468010 310.294403,104.087227 
	C304.707489,103.895081 300.924316,100.832253 298.490692,96.143578 
	C292.423584,84.454437 299.068726,66.964149 311.417114,62.115837 
	C312.839539,61.557362 314.670044,62.038303 316.311340,62.037323 
	C315.399658,63.194370 314.672607,64.587318 313.545654,65.469276 
	C307.332336,70.331802 303.940460,84.453072 307.415863,91.672684 
	C309.285645,95.556892 312.664062,96.650116 316.596954,96.046211 
	C320.608978,95.430145 323.725830,92.927780 323.804382,88.927032 
	C323.918945,83.091782 322.883118,77.241119 322.508026,71.386108 
	C322.314453,68.363831 322.488434,65.318001 322.496307,62.282818 
	C325.337219,63.635406 328.664215,64.432266 330.944092,66.426308 
	C354.465149,86.998528 352.920776,123.918449 333.361115,142.701706 
	C329.828156,146.094452 324.684998,147.810471 320.142639,150.650299 
	C318.285645,151.000000 316.571289,151.000000 314.428467,151.000000 
z"/>
<path fill="#F9F9FA" transform="translate(10,0)" opacity="1.000000" stroke="none" 
	d="
M169.571533,54.161949 
	C179.296890,56.409424 186.134781,61.804890 190.611603,70.189896 
	C194.648911,77.751671 194.012314,85.552376 188.231247,91.892700 
	C180.271133,100.622879 170.615128,105.301041 158.101639,102.617752 
	C158.043518,103.297791 157.911667,104.034302 157.929520,104.767159 
	C158.019928,108.476768 156.035263,110.849159 152.700745,111.716400 
	C149.119858,112.647705 146.277008,110.766060 145.165344,107.503273 
	C142.444244,99.516731 139.677597,91.493858 137.785522,83.288170 
	C134.461777,68.873451 131.906158,54.235909 133.191864,39.378941 
	C133.725388,33.214153 135.281021,26.922522 137.597275,21.183128 
	C140.342880,14.379867 146.458344,12.496559 153.334320,15.041129 
	C165.997086,19.727203 171.987625,33.132706 167.589233,47.045723 
	C166.949631,49.068939 166.077133,51.018532 165.103363,53.544403 
	C166.687393,53.757248 167.919922,53.922863 169.571533,54.161949 
M163.396210,91.016907 
	C168.345703,88.453369 173.928284,86.643425 178.092453,83.145103 
	C183.957855,78.217613 183.843018,70.121353 179.036377,65.437271 
	C172.734329,59.295906 162.954758,58.487930 157.595261,63.452568 
	C155.343079,65.538834 152.667618,67.168190 149.909119,69.209061 
	C151.320602,76.807007 152.794968,84.743553 154.344574,93.085068 
	C157.480545,92.341721 160.040268,91.734970 163.396210,91.016907 
M145.949677,36.803909 
	C146.068420,43.234272 146.187149,49.664639 146.305878,56.095001 
	C146.953903,56.148045 147.601944,56.201084 148.249969,56.254124 
	C154.190704,50.361881 158.626129,43.729099 157.188965,34.668865 
	C156.426941,29.864916 153.485458,26.809315 148.065720,25.469719 
	C147.331802,29.180574 146.669189,32.530884 145.949677,36.803909 
z"/>
<path fill="#00BE2D" opacity="1.000000" stroke="none" 
	d="
M57.403713,54.420609 
	C57.955799,52.399296 58.898407,50.279385 58.271343,48.846302 
	C54.382683,39.959221 47.307968,34.570389 37.853149,33.224285 
	C34.615528,32.763336 30.908005,34.670410 27.588497,35.946476 
	C23.160563,37.648643 18.901718,39.790672 14.389014,41.825493 
	C13.001698,28.395857 23.358904,18.403694 37.135895,19.146538 
	C51.512257,19.921698 66.711197,31.848610 70.949837,45.681026 
	C73.685341,54.608078 70.216286,62.605289 61.446209,65.981308 
	C56.570793,67.858078 51.264473,68.615456 45.484249,70.042244 
	C45.484249,72.743156 46.001892,76.267906 45.292416,79.525406 
	C44.858574,81.517326 42.539856,83.098724 41.067665,84.864494 
	C39.307537,83.371071 36.500980,82.173683 35.979374,80.329880 
	C34.271290,74.292099 33.000782,68.061905 32.323372,61.823025 
	C31.788050,56.892792 35.970009,53.924213 41.042702,55.483345 
	C46.599579,57.191296 51.828045,56.846359 57.403713,54.420609 
z"/>
<path fill="#F6F7F7" transform="translate(10,0)" opacity="1.000000" stroke="none" 
	d="
M210.612976,93.233078 
	C205.732391,81.220825 206.036118,68.815407 205.398605,56.582233 
	C204.966354,48.287907 205.174133,39.959995 205.110672,31.646994 
	C205.103058,30.650393 204.890717,29.508356 205.289978,28.683987 
	C206.368027,26.458147 207.724930,24.367392 208.971207,22.223045 
	C210.427887,24.164816 212.845505,25.952728 213.185043,28.073362 
	C215.361893,41.669209 217.061874,55.340973 218.963669,68.981499 
	C219.742920,74.570610 220.671066,80.138954 221.451981,85.727852 
	C221.680481,87.363167 222.116257,89.202202 221.615234,90.658195 
	C220.580521,93.665131 218.979691,96.477249 217.611740,99.369507 
	C215.343735,97.431664 213.075745,95.493828 210.612976,93.233078 
z"/>
<path fill="#F6F7F7" transform="translate(10,0)" opacity="1.000000" stroke="none" 
	d="
M260.792023,103.804504 
	C254.033569,104.806351 247.945160,104.521935 243.907471,98.582085 
	C239.710419,92.407822 240.713852,86.016174 243.812729,79.697105 
	C249.238434,68.633354 260.351532,61.732662 271.606812,63.235184 
	C268.880646,64.742012 266.833160,65.873703 264.609558,67.102737 
	C267.811188,68.726974 270.905579,69.838791 273.472748,71.684105 
	C281.544556,77.486320 282.788361,87.637093 275.629028,94.476036 
	C271.569794,98.353615 266.047394,100.699493 260.792023,103.804504 
M273.289734,80.297997 
	C269.013153,77.151794 264.736572,74.005592 259.027496,69.805534 
	C256.449097,77.144295 254.163544,82.706436 252.599518,88.464561 
	C251.700348,91.774925 254.017639,94.272827 257.311157,93.758369 
	C261.786011,93.059372 266.259521,91.703804 270.435303,89.928215 
	C274.273560,88.296135 275.645905,85.008530 273.289734,80.297997 
z"/>
<path fill="#00BD2D" opacity="1.000000" stroke="none" 
	d="
M49.150608,118.120567 
	C46.343910,127.736870 32.990261,126.275742 27.687849,120.800156 
	C24.800699,117.818718 25.106327,111.858322 28.197552,108.554916 
	C31.729353,104.780693 36.694733,103.933144 41.901863,106.215675 
	C47.092533,108.491005 49.660450,112.508423 49.150608,118.120567 
z"/>
<path fill="#F5F5F6" transform="translate(10,0)" opacity="1.000000" stroke="none" 
	d="
M317.397339,62.948883 
	C317.435028,62.168503 317.856445,61.672421 318.277863,61.176334 
	C318.677521,61.632458 319.077209,62.088585 319.476868,62.544708 
	C318.911591,62.774197 318.346344,63.003689 317.397339,62.948883 
z"/>
<path fill="#131B2D" transform="translate(10,0)" opacity="1.000000" stroke="none" 
	d="
M162.998108,91.072556 
	C160.040268,91.734970 157.480545,92.341721 154.344574,93.085068 
	C152.794968,84.743553 151.320602,76.807007 149.909119,69.209061 
	C152.667618,67.168190 155.343079,65.538834 157.595261,63.452568 
	C162.954758,58.487930 172.734329,59.295906 179.036377,65.437271 
	C183.843018,70.121353 183.957855,78.217613 178.092453,83.145103 
	C173.928284,86.643425 168.345703,88.453369 162.998108,91.072556 
z"/>
<path fill="#141C2F" transform="translate(10,0)" opacity="1.000000" stroke="none" 
	d="
M145.978119,36.342552 
	C146.669189,32.530884 147.331802,29.180574 148.065720,25.469719 
	C153.485458,26.809315 156.426941,29.864916 157.188965,34.668865 
	C158.626129,43.729099 154.190704,50.361881 148.249969,56.254124 
	C147.601944,56.201084 146.953903,56.148045 146.305878,56.095001 
	C146.187149,49.664639 146.068420,43.234272 145.978119,36.342552 
z"/>
<path fill="#161E30" transform="translate(10,0)" opacity="1.000000" stroke="none" 
	d="
M273.488586,80.599449 
	C275.645905,85.008530 274.273560,88.296135 270.435303,89.928215 
	C266.259521,91.703804 261.786011,93.059372 257.311157,93.758369 
	C254.017639,94.272827 251.700348,91.774925 252.599518,88.464561 
	C254.163544,82.706436 256.449097,77.144295 259.027496,69.805534 
	C264.736572,74.005592 269.013153,77.151794 273.488586,80.599449 
z"/>
</svg>