<svg version="1.1" id="Layer_1" xmlns="http://www.w3.org/2000/svg" xmlns:xlink="http://www.w3.org/1999/xlink" x="0px" y="0px"
	 width="100%" viewBox="0 -25 500 150" enable-background="new 0 -25 500 150" xml:space="preserve">

<path fill="#F8F8F9" opacity="1.000000" stroke="none" 
	d="
M174.416656,101.000000 
	C172.192612,97.608566 169.680756,94.407097 168.705719,90.791214 
	C165.351303,78.351540 162.384109,65.800034 159.613235,53.215427 
	C158.878006,49.876194 159.376984,46.265499 159.306808,42.779495 
	C159.174500,36.207661 159.033646,29.635990 158.911697,23.063967 
	C158.880600,21.388454 158.907043,19.711878 158.907043,18.035789 
	C159.338867,17.887756 159.770691,17.739723 160.202515,17.591690 
	C161.350204,18.624428 162.497894,19.657166 163.556030,20.609318 
	C165.471741,17.171652 167.225555,13.403852 169.529129,10.009118 
	C176.009445,0.459302 182.857727,-0.384906 191.523880,7.134418 
	C201.092361,15.436669 207.244370,26.067497 211.064987,37.910923 
	C213.858368,46.569973 216.151428,55.485352 217.613800,64.458206 
	C220.287949,80.865959 211.133453,94.048439 194.872726,98.572067 
	C193.521637,98.947929 192.315247,99.843933 191.520813,100.749130 
	C191.250000,101.000000 190.500000,101.000000 189.696457,100.613266 
	C188.853867,99.913353 188.064804,99.600166 186.907532,99.139259 
	C183.748856,98.619881 180.782028,97.586212 179.000000,101.000000 
	C177.611115,101.000000 176.222214,101.000000 174.416656,101.000000 
M187.448517,13.952097 
	C185.880219,12.796042 184.311920,11.639988 182.199524,10.082847 
	C175.200760,21.383919 170.004837,32.662079 171.849716,45.870342 
	C172.788696,52.593040 174.562943,59.205311 176.084564,65.838829 
	C178.025146,74.298737 180.092102,82.729652 182.102188,91.163002 
	C206.086334,85.240227 215.216232,68.590057 207.220688,46.184361 
	C202.986282,34.318420 196.875153,23.515755 187.448517,13.952097 
z"/>
<path fill="#10182B" opacity="1.000000" stroke="none" 
	d="
M179.444168,101.000000 
	C180.782028,97.586212 183.748856,98.619881 186.832611,99.566551 
	C187.083939,100.427704 187.041977,100.713852 187.000000,101.000000 
	C184.629440,101.000000 182.258896,101.000000 179.444168,101.000000 
z"/>
<path fill="#0F182A" opacity="1.000000" stroke="none" 
	d="
M187.333328,101.000000 
	C187.041977,100.713852 187.083939,100.427704 187.200836,99.714264 
	C188.064804,99.600166 188.853867,99.913353 189.321457,100.613266 
	C188.555557,101.000000 188.111099,101.000000 187.333328,101.000000 
z"/>
<path fill="#00BE2D" opacity="1.000000" stroke="none" 
	d="
M39.261486,28.641933 
	C44.625957,31.414097 49.656578,33.980919 54.642368,36.632061 
	C62.268055,40.686943 69.909622,44.716206 77.448380,48.928295 
	C80.603371,50.691059 83.902641,52.494610 86.449615,54.982597 
	C91.332390,59.752258 91.186295,63.170513 86.743752,68.393639 
	C76.567329,80.358101 63.752430,89.014565 50.342564,96.769875 
	C42.877388,101.087196 36.957466,99.147682 32.818214,89.785378 
	C29.460491,82.190758 27.674883,73.691254 26.479095,65.407295 
	C25.179541,56.404469 25.132877,47.191128 24.971191,38.061939 
	C24.805138,28.686132 30.192411,25.148821 39.261486,28.641933 
M55.330929,73.846321 
	C59.392204,70.815842 63.453484,67.785355 67.883797,64.479500 
	C58.724560,58.481541 50.347382,52.995712 41.167957,46.984535 
	C42.958084,58.134380 44.637638,68.595490 46.483421,80.091988 
	C49.942215,77.631897 52.333229,75.931274 55.330929,73.846321 
z"/>
<path fill="#F8F9F9" opacity="1.000000" stroke="none" 
	d="
M294.977692,58.999928 
	C296.320160,55.974545 297.363800,52.766945 299.072296,49.964729 
	C301.927826,45.281181 305.415649,44.575741 309.356293,48.346291 
	C313.630951,52.436413 317.223846,57.239090 320.908112,61.493290 
	C323.568604,53.270382 323.302246,41.633007 338.108826,42.710812 
	C339.476105,43.013325 340.328705,43.271324 341.181274,43.529320 
	C357.512329,47.145020 365.654633,62.122040 365.499634,75.920433 
	C365.497772,76.084267 365.435516,76.246613 365.411804,76.411148 
	C364.838654,80.391502 363.530609,84.672157 359.299011,85.151634 
	C355.015533,85.636986 353.281250,81.315346 352.387756,77.791054 
	C350.880554,71.846069 350.331482,65.650337 348.706879,59.745083 
	C346.965515,53.415257 344.328033,47.441525 336.851501,45.703781 
	C331.629395,44.490025 328.414490,46.234627 326.285095,52.170101 
	C325.496735,54.840473 324.848572,56.920826 324.200378,59.001179 
	C324.211731,60.733467 324.223053,62.465755 323.894714,64.700073 
	C323.730164,66.125336 323.905243,67.048576 324.080322,67.971825 
	C325.090820,71.980583 326.151001,75.977646 327.098389,80.001266 
	C328.125336,84.362633 326.373077,87.635750 322.646179,88.535355 
	C319.152435,89.378693 316.200012,86.747963 315.046906,82.407715 
	C312.927612,74.430809 310.529266,66.528053 308.010071,57.954422 
	C307.096802,56.197418 306.420746,55.080379 305.320435,53.262360 
	C304.778046,55.492752 304.472992,56.747112 304.167969,58.001472 
	C303.437042,64.218964 302.687714,70.434357 301.982635,76.654785 
	C301.609436,79.947296 301.533203,83.290115 300.919830,86.534019 
	C300.317047,89.722099 298.402435,92.146606 294.815796,91.867805 
	C291.246307,91.590355 289.736847,89.165375 289.748505,85.688568 
	C289.773529,78.231140 289.673218,70.770828 289.879059,63.318741 
	C289.916626,61.959278 291.163818,60.633228 292.372559,59.512787 
	C293.259308,60.490154 293.626129,61.246483 293.803589,62.176437 
	C293.699432,62.719654 293.784668,63.089241 293.869934,63.458832 
	C294.223663,62.909180 294.577393,62.359531 294.901367,61.457291 
	C294.906982,60.403107 294.942322,59.701515 294.977692,58.999928 
z"/>
<path fill="#F6F6F7" opacity="1.000000" stroke="none" 
	d="
M227.852493,65.668755 
	C230.852493,51.380962 243.387299,44.972950 254.283813,51.787086 
	C261.817963,56.498558 263.274170,64.381432 257.104340,70.684326 
	C253.508942,74.357254 248.830154,76.969635 243.625809,80.805901 
	C250.940247,84.693611 258.277283,88.593323 266.342133,92.879898 
	C257.331696,95.821388 248.866104,96.915825 240.782227,92.163322 
	C230.943115,86.378922 227.023727,77.306274 227.852493,65.668755 
M240.343170,73.961479 
	C241.267090,74.568901 242.726624,75.901848 243.034378,75.674652 
	C247.485199,72.388840 252.213852,69.299400 255.961929,65.305199 
	C258.440369,62.663994 256.574188,58.589149 253.240280,57.241600 
	C248.247253,55.223442 241.592712,57.814629 240.197586,63.021496 
	C239.346512,66.197853 240.058197,69.792938 240.343170,73.961479 
z"/>
<path fill="#F5F6F6" opacity="1.000000" stroke="none" 
	d="
M394.998901,49.102619 
	C396.133942,42.703075 402.263916,39.848431 409.420135,42.724094 
	C417.406189,45.933220 420.877930,52.809093 421.889954,60.677734 
	C424.066101,77.597977 409.345612,92.105156 392.378113,90.253601 
	C384.123047,89.352783 379.331573,84.048256 379.980408,75.768219 
	C380.791687,65.415199 386.042084,57.781143 395.942749,53.010761 
	C396.112213,53.805649 395.731598,54.650475 395.121613,55.269154 
	C389.621368,60.847923 385.571747,67.084427 385.828888,75.318794 
	C385.990723,80.501503 388.249329,82.826866 393.475464,83.245117 
	C402.673950,83.981293 411.734009,77.864868 413.245483,69.898468 
	C414.779510,61.813198 408.989227,53.274162 399.638184,50.061310 
	C397.877258,49.578503 396.438080,49.340561 394.998901,49.102619 
z"/>
<path fill="#141C2E" opacity="1.000000" stroke="none" 
	d="
M399.959961,50.306183 
	C408.989227,53.274162 414.779510,61.813198 413.245483,69.898468 
	C411.734009,77.864868 402.673950,83.981293 393.475464,83.245117 
	C388.249329,82.826866 385.990723,80.501503 385.828888,75.318794 
	C385.571747,67.084427 389.621368,60.847923 395.121613,55.269154 
	C395.731598,54.650475 396.112213,53.805649 396.296448,52.916592 
	C395.993744,52.767475 395.958679,52.389553 396.166962,51.966209 
	C397.570160,51.130638 398.765045,50.718410 399.959961,50.306183 
z"/>
<path fill="#10182B" opacity="1.000000" stroke="none" 
	d="
M399.638184,50.061317 
	C398.765045,50.718410 397.570160,51.130638 396.152527,51.776985 
	C395.421387,51.827488 394.912933,51.643871 394.431824,51.105972 
	C394.699554,50.544113 394.861389,50.287056 394.944672,49.980515 
	C394.944672,49.980515 394.973846,49.541691 394.986389,49.322155 
	C396.438080,49.340561 397.877258,49.578503 399.638184,50.061317 
z"/>
<path fill="#10182B" opacity="1.000000" stroke="none" 
	d="
M324.543396,58.887703 
	C324.848572,56.920826 325.496735,54.840473 326.456238,52.511311 
	C326.140533,54.433075 325.513458,56.603649 324.543396,58.887703 
z"/>
<path fill="#10182B" opacity="1.000000" stroke="none" 
	d="
M304.533081,58.001392 
	C304.472992,56.747112 304.778046,55.492752 305.320435,53.262360 
	C306.420746,55.080379 307.096802,56.197418 307.796021,57.658035 
	C306.845551,58.001514 305.871857,58.001415 304.533081,58.001392 
z"/>
<path fill="#10182B" opacity="1.000000" stroke="none" 
	d="
M324.291626,67.783936 
	C323.905243,67.048576 323.730164,66.125336 323.890442,65.138641 
	C324.318176,65.915474 324.410553,66.755760 324.291626,67.783936 
z"/>
<path fill="#10182B" opacity="1.000000" stroke="none" 
	d="
M340.916870,43.186089 
	C340.328705,43.271324 339.476105,43.013325 338.405731,42.524750 
	C339.009460,42.477066 339.830963,42.659958 340.916870,43.186089 
z"/>
<path fill="#10182B" opacity="1.000000" stroke="none" 
	d="
M294.579468,59.007595 
	C294.942322,59.701515 294.906982,60.403107 294.682495,61.581665 
	C294.326569,62.040028 294.159760,62.021420 293.992950,62.002811 
	C293.626129,61.246483 293.259308,60.490154 292.742889,59.439316 
	C293.122620,59.101631 293.651917,59.058449 294.579468,59.007595 
z"/>
<path fill="#10182B" opacity="1.000000" stroke="none" 
	d="
M273.263245,89.815247 
	C272.949585,89.948395 272.671783,89.902222 272.394012,89.856049 
	C272.695740,89.782669 272.997437,89.709290 273.263245,89.815247 
z"/>
<path fill="#141C2E" opacity="1.000000" stroke="none" 
	d="
M394.751587,50.108093 
	C394.861389,50.287056 394.699554,50.544113 394.270203,50.881905 
	C394.151642,50.698799 394.310730,50.439983 394.751587,50.108093 
z"/>
<path fill="#121A2D" opacity="1.000000" stroke="none" 
	d="
M187.714355,14.194977 
	C196.875153,23.515755 202.986282,34.318420 207.220688,46.184361 
	C215.216232,68.590057 206.086334,85.240227 182.102188,91.163002 
	C180.092102,82.729652 178.025146,74.298737 176.084564,65.838829 
	C174.562943,59.205311 172.788696,52.593040 171.849716,45.870342 
	C170.004837,32.662079 175.200760,21.383919 182.199524,10.082847 
	C184.311920,11.639988 185.880219,12.796042 187.714355,14.194977 
z"/>
<path fill="#0E1D2A" opacity="1.000000" stroke="none" 
	d="
M55.027588,74.038483 
	C52.333229,75.931274 49.942215,77.631897 46.483421,80.091988 
	C44.637638,68.595490 42.958084,58.134380 41.167957,46.984535 
	C50.347382,52.995712 58.724560,58.481541 67.883797,64.479500 
	C63.453484,67.785355 59.392204,70.815842 55.027588,74.038483 
z"/>
<path fill="#F7F8F8" opacity="1.000000" stroke="none" 
	d="
M293.803589,62.176437 
	C294.159760,62.021420 294.326569,62.040028 294.712219,61.934261 
	C294.577393,62.359531 294.223663,62.909180 293.869934,63.458832 
	C293.784668,63.089241 293.699432,62.719654 293.803589,62.176437 
z"/>
<path fill="#171F31" opacity="1.000000" stroke="none" 
	d="
M240.205566,73.580719 
	C240.058197,69.792938 239.346512,66.197853 240.197586,63.021496 
	C241.592712,57.814629 248.247253,55.223442 253.240280,57.241600 
	C256.574188,58.589149 258.440369,62.663994 255.961929,65.305199 
	C252.213852,69.299400 247.485199,72.388840 243.034378,75.674652 
	C242.726624,75.901848 241.267090,74.568901 240.205566,73.580719 
z"/>
</svg>