<svg xmlns="http://www.w3.org/2000/svg" width="100%" viewBox="19 -25 77 150" preserveAspectRatio="xMidYMid meet">
<path fill="#00BE2D" opacity="1.000000" stroke="none" 
	d="
M39.261486,28.641933 
	C44.625957,31.414097 49.656578,33.980919 54.642368,36.632061 
	C62.268055,40.686943 69.909622,44.716206 77.448380,48.928295 
	C80.603371,50.691059 83.902641,52.494610 86.449615,54.982597 
	C91.332390,59.752258 91.186295,63.170513 86.743752,68.393639 
	C76.567329,80.358101 63.752430,89.014565 50.342564,96.769875 
	C42.877388,101.087196 36.957466,99.147682 32.818214,89.785378 
	C29.460491,82.190758 27.674883,73.691254 26.479095,65.407295 
	C25.179541,56.404469 25.132877,47.191128 24.971191,38.061939 
	C24.805138,28.686132 30.192411,25.148821 39.261486,28.641933 
M55.330929,73.846321 
	C59.392204,70.815842 63.453484,67.785355 67.883797,64.479500 
	C58.724560,58.481541 50.347382,52.995712 41.167957,46.984535 
	C42.958084,58.134380 44.637638,68.595490 46.483421,80.091988 
	C49.942215,77.631897 52.333229,75.931274 55.330929,73.846321 
z"/>
<path fill="#0E1D2A" opacity="1.000000" stroke="none" 
	d="
M55.027588,74.038483 
	C52.333229,75.931274 49.942215,77.631897 46.483421,80.091988 
	C44.637638,68.595490 42.958084,58.134380 41.167957,46.984535 
	C50.347382,52.995712 58.724560,58.481541 67.883797,64.479500 
	C63.453484,67.785355 59.392204,70.815842 55.027588,74.038483 
z"/>
</svg>
