<svg xmlns="http://www.w3.org/2000/svg" width="100%" viewBox="167 -5 339 150" preserveAspectRatio="xMidYMid meet">
<path fill="#F6F7F7" opacity="1.000000" stroke="none"
	d="
M175.886200,85.267372
	C174.889908,75.561272 173.476395,66.311913 173.099487,57.020489
	C172.634735,45.563271 186.746613,35.863346 197.591156,39.934532
	C210.115753,44.636425 215.415253,55.314686 218.897217,67.137131
	C221.030838,74.381493 220.855438,81.948982 217.504929,88.640602
	C213.433975,96.771133 208.602554,104.598846 203.360092,112.035896
	C200.169571,116.562042 195.621445,120.177078 189.226654,116.807434
	C188.721359,116.541183 187.919708,116.582695 187.338013,116.756454
	C182.818924,118.106369 181.231033,115.457191 180.552429,111.747787
	C178.965881,103.075310 177.464569,94.387222 175.886200,85.267372
M204.883606,94.287453
	C205.656815,92.817657 206.457474,91.361572 207.198929,89.875923
	C213.531952,77.186592 210.808441,61.160004 200.643997,51.238605
	C194.093842,44.845066 185.512131,45.732265 180.039459,53.452023
	C179.546509,54.147350 179.360153,55.317982 179.517960,56.178673
	C182.832169,74.254181 186.216476,92.316826 189.640823,110.670273
	C197.630966,107.895218 200.416809,100.792000 204.883606,94.287453
z"/>
<path fill="#F7F7F8" opacity="1.000000" stroke="none"
	d="
M456.827148,97.232719
	C447.331055,86.653351 452.747101,71.869659 466.993103,66.871185
	C464.480408,56.361214 461.835846,45.961605 459.587036,35.477104
	C458.939362,32.457481 458.899902,29.069002 459.597015,26.087017
	C460.028381,24.241804 462.150909,22.024553 463.940155,21.536898
	C465.111572,21.217632 467.948212,23.386257 468.486115,24.968498
	C471.372681,33.459454 473.817932,42.102695 476.325500,50.719574
	C478.554626,58.379543 480.169312,66.263405 483.003113,73.686592
	C484.912262,78.687706 488.451080,83.071075 491.295349,87.709625
	C494.044159,92.192421 496.837219,96.648087 500.187042,102.043816
	C490.601318,101.909882 486.394653,95.953529 482.726105,91.575966
	C477.886932,94.545395 473.710175,98.321976 468.857697,99.674652
	C465.415863,100.634094 461.061554,98.320175 456.827148,97.232719
M475.239014,80.360992
	C473.299469,78.212700 471.359924,76.064415 469.420380,73.916130
	C466.824280,76.272896 464.199249,78.599258 461.660126,81.015907
	C461.229431,81.425819 460.874481,82.283066 460.985321,82.832634
	C461.561707,85.689987 461.378448,89.754616 463.175629,91.090744
	C466.840118,93.815109 471.063232,92.197655 474.402802,89.135811
	C476.969940,86.782158 478.387238,84.198380 475.239014,80.360992
z"/>
<path fill="#F5F5F6" opacity="1.000000" stroke="none"
	d="
M386.968658,83.170639
	C389.959625,91.281174 388.206299,97.720238 380.860779,101.106346
	C376.278442,103.218689 370.663055,104.289658 365.631805,103.964142
	C356.750946,103.389572 350.962799,95.441025 352.304871,87.398087
	C353.907349,77.794441 361.461639,72.686150 370.710388,73.742104
	C377.645081,74.533852 383.235779,76.617241 386.968658,83.170639
M361.588898,85.529167
	C359.886200,92.625648 362.471649,96.112854 369.625488,96.014046
	C371.727234,95.985016 373.961884,95.572159 375.888092,94.753082
	C381.242615,92.476204 381.937195,88.248238 377.676483,84.291992
	C375.377106,82.156906 372.822449,80.296753 369.564880,77.647171
	C367.049316,80.005249 364.484344,82.409637 361.588898,85.529167
z"/>
<path fill="#F6F6F7" opacity="1.000000" stroke="none"
	d="
M444.334351,68.589920
	C441.679932,70.541000 438.917664,72.510239 435.864502,73.780411
	C433.303131,74.845985 430.360535,74.951317 427.659851,75.734062
	C418.890930,78.275589 416.131073,81.958038 415.932404,91.169052
	C415.889435,93.160347 416.504150,95.352844 415.852631,97.091713
	C415.194061,98.849335 413.564819,100.947121 411.936920,101.412331
	C410.661774,101.776718 407.590942,100.155083 407.294647,98.935516
	C405.619751,92.042427 404.540314,85.004585 403.266296,78.014565
	C403.238098,77.859787 403.258606,77.655350 403.340179,77.527557
	C404.347198,75.950333 405.369812,74.383064 406.388397,72.813225
	C407.574982,74.053360 408.761566,75.293495 410.204742,76.801826
	C414.872772,69.290222 423.191315,67.072914 431.709717,65.313972
	C436.258636,64.374672 440.671326,64.410507 444.334351,68.589920
z"/>
<path fill="#F4F4F5" opacity="1.000000" stroke="none"
	d="
M286.371887,76.367157
	C284.288757,78.696922 282.481110,80.793060 279.984222,83.688400
	C284.115356,85.066544 287.362762,86.048447 290.534027,87.233894
	C294.358337,88.663437 298.047546,90.462646 298.643188,95.118530
	C299.245026,99.822914 296.420715,102.979790 293.048309,105.582520
	C289.049347,108.668846 285.869171,108.103943 280.798065,103.887726
	C283.697937,101.501183 286.625153,99.092140 290.535767,95.873787
	C286.663055,94.617012 283.929138,93.772324 281.223816,92.844223
	C271.604126,89.543968 269.671387,82.942284 276.617310,75.508057
	C279.352936,72.580139 283.083191,70.386452 286.725037,68.602692
	C288.057434,67.950096 290.445160,69.452255 292.351471,69.971436
	C291.396606,71.348801 290.550140,72.821770 289.449219,74.070358
	C288.699554,74.920586 287.593872,75.456863 286.371887,76.367157
z"/>
<path fill="#F4F5F5" opacity="1.000000" stroke="none"
	d="
M314.285278,102.789093
	C305.968567,92.832748 309.718353,77.653824 321.401428,73.114250
	C323.162018,72.430161 325.443787,72.055130 327.158112,72.587662
	C328.729706,73.075844 330.503510,74.802002 330.937775,76.336548
	C331.188477,77.222420 329.206268,79.374138 327.807312,79.976227
	C323.278198,81.925468 319.638580,84.432663 318.882629,89.722435
	C318.312836,93.709457 319.521240,96.712173 323.756165,97.627556
	C327.590302,98.456299 331.486786,98.996574 335.160400,99.630325
	C329.403656,106.191727 321.437317,107.605499 314.285278,102.789093
z"/>
<path fill="#F5F5F6" opacity="1.000000" stroke="none"
	d="
M249.608093,111.008286
	C248.922363,103.573708 248.177658,96.478058 248.087814,89.374123
	C248.054321,86.725983 249.168320,83.839691 250.511047,81.492088
	C251.182770,80.317680 253.823441,79.282852 255.064102,79.700012
	C256.286438,80.111000 257.547943,82.407372 257.612122,83.926399
	C257.953949,92.015411 258.073029,100.123184 257.902466,108.216743
	C257.867584,109.872284 256.575806,112.478210 255.305969,112.878716
	C253.786270,113.358040 251.668152,111.940125 249.608093,111.008286
z"/>
<path fill="#F2F2F3" opacity="1.000000" stroke="none"
	d="
M244.327438,64.745979
	C247.603714,62.481010 250.522888,59.911724 253.912720,58.861179
	C257.482849,57.754765 259.766968,61.085827 259.707184,63.979980
	C259.645813,66.950630 258.457184,70.854744 256.328674,72.538506
	C254.455597,74.020172 250.373474,73.734680 247.682404,72.896194
	C244.350220,71.857956 243.323685,68.633049 244.327438,64.745979
z"/>
</svg>
