<svg xmlns="http://www.w3.org/2000/svg" width="100%" viewBox="2 -5 110 150" preserveAspectRatio="xMidYMid meet">
<path fill="#01BB2D" opacity="1.000000" stroke="none"
	d="
M14.412026,109.565445
	C8.422318,104.627380 7.629257,98.085968 8.605453,91.588387
	C10.788442,77.058350 16.779669,63.865246 24.680202,51.591518
	C25.778408,49.885422 28.584875,49.122509 30.745533,48.307209
	C32.413681,47.677753 34.299114,47.543724 36.105259,47.377178
	C39.832539,47.033482 43.671646,45.802170 46.871674,49.257141
	C47.572395,50.013687 49.329849,50.052330 50.580109,49.992493
	C55.228844,49.770004 59.869591,49.376183 64.511757,49.025757
	C65.169090,48.976131 66.208374,49.029858 66.412277,48.666336
	C70.011909,42.248859 74.959366,46.048832 79.558052,46.784630
	C85.681480,47.764393 90.061684,49.843872 92.914902,56.459167
	C99.069603,70.729080 105.658875,84.736191 105.769798,100.626846
	C105.785965,102.943375 104.083229,106.002678 102.200752,107.449654
	C98.275009,110.467140 93.769081,112.770851 89.369797,115.121269
	C83.345528,118.339897 80.614632,117.879814 76.538361,112.390038
	C74.465866,109.598877 72.565826,108.939949 69.454063,110.279343
	C61.121796,113.865776 52.695091,113.867310 44.118458,110.897499
	C42.940060,110.489456 40.656792,111.304955 39.776134,112.324036
	C34.124241,118.864388 34.123718,119.144928 25.943146,115.940956
	C21.992617,114.393700 18.418114,111.886345 14.412026,109.565445
M86.816277,59.756866
	C84.324394,55.255428 79.841133,54.502949 75.836372,57.602409
	C74.672211,58.503410 72.808899,58.899563 71.280777,58.865623
	C62.836460,58.678066 54.394753,58.327148 45.956924,57.930511
	C44.190777,57.847488 42.276859,57.692616 40.721016,56.957294
	C36.162453,54.802826 31.467178,55.689960 29.413561,60.195335
	C25.077616,69.707848 20.824823,79.299171 17.360119,89.147415
	C16.008318,92.989830 16.600050,97.628174 16.874386,101.867249
	C16.965492,103.275063 18.557758,105.183159 19.937038,105.794266
	C23.566484,107.402344 27.426565,108.529823 31.265947,109.591324
	C32.059483,109.810715 33.417496,109.142021 34.029903,108.451881
	C34.429077,108.002045 34.058685,106.746582 33.843613,105.900139
	C33.404430,104.171715 32.837402,102.475777 32.323032,100.766457
	C34.330944,100.461571 36.341949,99.906044 38.345798,99.930748
	C39.961143,99.950661 41.692429,100.413757 43.158260,101.122726
	C53.034748,105.899666 62.583706,103.797935 72.094284,99.980438
	C73.789993,99.299797 75.472656,98.468536 77.242844,98.115608
	C81.213219,97.323997 83.623627,100.271866 82.257309,104.079826
	C81.943810,104.953568 81.495041,105.778770 80.331604,108.329933
	C83.414520,108.121223 85.536423,108.513214 87.096039,107.752464
	C89.754128,106.455910 91.932732,104.204048 94.544373,102.777519
	C97.768486,101.016449 98.544685,98.541382 97.564926,95.287506
	C94.072250,83.687958 90.536797,72.101288 86.816277,59.756866
z"/>
<path fill="#01BC2D" opacity="1.000000" stroke="none"
	d="
M65.089645,79.122261
	C70.314842,75.262909 74.025833,75.494324 77.994507,79.640495
	C81.671921,83.482376 81.855835,88.789436 78.444557,92.627617
	C75.258316,96.212601 70.100357,97.032394 66.308540,94.556503
	C62.040352,91.769539 60.809566,86.347412 63.365753,81.386177
	C63.738380,80.662964 64.332848,80.054047 65.089645,79.122261
z"/>
<path fill="#00BE2D" opacity="1.000000" stroke="none"
	d="
M47.210079,93.445389
	C41.648193,96.183182 38.267605,95.359055 35.416260,90.904373
	C32.841778,86.882240 33.528927,81.602097 37.003811,78.705429
	C40.161900,76.072853 44.458244,76.286339 47.889301,79.246338
	C51.539322,82.395241 52.028500,86.921936 49.146183,91.323082
	C48.697662,92.007950 48.055439,92.565964 47.210079,93.445389
z"/>
</svg>
