<svg xmlns="http://www.w3.org/2000/svg" width="100%" viewBox="13 0 91 150" preserveAspectRatio="xMidYMid meet">
<path fill="#00BD2D" opacity="1.000000" stroke="none" 
	d="
M47.202103,22.993633 
	C60.193729,22.903030 72.673637,22.967472 84.315987,28.693174 
	C85.381073,29.216982 87.220718,28.928959 88.378029,28.360743 
	C92.023102,26.571077 94.541107,27.986612 95.387032,31.327160 
	C96.642174,36.283653 97.708595,41.429958 97.797523,46.513973 
	C98.103378,63.998753 98.021019,81.491959 97.928223,98.981102 
	C97.899590,104.377739 96.321548,109.386597 92.714340,113.985161 
	C91.527313,112.522713 90.610580,111.393272 89.722092,110.298630 
	C77.309822,116.880699 64.087540,116.118881 51.010059,115.427765 
	C44.586712,115.088310 38.190067,113.602592 31.878273,112.199532 
	C30.077591,111.799263 28.616661,109.870575 26.999935,108.642754 
	C28.656803,107.537148 30.241365,105.605782 31.981699,105.453384 
	C49.811165,103.892166 67.561668,100.618988 86.190826,102.586594 
	C85.791977,99.918427 85.076416,97.380119 85.091011,94.846016 
	C85.159920,82.883583 85.404320,70.921837 85.635201,58.960793 
	C85.776596,51.636009 86.142365,44.311218 86.049843,36.990952 
	C86.036026,35.897552 84.105949,33.943768 82.979843,33.881542 
	C65.725082,32.928089 48.453793,32.276890 31.195755,31.375340 
	C29.486034,31.286026 27.837767,30.020344 26.160976,29.300653 
	C27.613504,28.143362 28.912363,26.333628 30.546797,25.948673 
	C35.874214,24.693916 41.324165,23.959391 47.202103,22.993633 
z"/>
<path fill="#00BE2D" opacity="1.000000" stroke="none" 
	d="
M32.909969,82.948074 
	C32.358753,86.310791 32.100300,89.322769 31.135029,92.088020 
	C30.613386,93.582390 29.055500,95.306328 27.636946,95.679604 
	C26.753819,95.911980 24.572628,94.033134 24.153908,92.724319 
	C22.253456,86.783989 19.712439,80.770638 19.360617,74.670601 
	C18.624874,61.913979 19.042418,49.085255 19.188719,36.288460 
	C19.215113,33.979656 20.210045,31.681921 20.831900,29.067650 
	C25.402269,32.078545 32.090691,63.492138 32.909969,82.948074 
z"/>
<path fill="#02AF2D" opacity="1.000000" stroke="none" 
	d="
M62.673660,60.922646 
	C64.540611,61.071278 65.953659,61.215786 67.776100,61.402161 
	C62.772034,64.747810 49.938347,65.645203 42.327503,62.853207 
	C49.586414,60.273106 55.988068,61.238514 62.673660,60.922646 
z"/>
<path fill="#02B02D" opacity="1.000000" stroke="none" 
	d="
M63.568146,77.903687 
	C65.175850,78.151192 66.342987,78.384178 67.510117,78.617157 
	C59.477356,81.216286 51.508934,82.139771 43.463650,80.928337 
	C43.421440,80.192589 43.379234,79.456841 43.337025,78.721092 
	C49.933872,78.443779 56.530724,78.166466 63.568146,77.903687 
z"/>
<path fill="#03A12D" opacity="1.000000" stroke="none" 
	d="
M48.109837,46.125145 
	C50.790310,46.384247 53.038689,46.674522 55.287064,46.964794 
	C55.237896,47.485836 55.188728,48.006878 55.139557,48.527920 
	C49.270607,49.064110 43.401653,49.600300 37.532703,50.136490 
	C37.421268,49.525009 37.309830,48.913528 37.198391,48.302048 
	C40.691509,47.586803 44.184624,46.871563 48.109837,46.125145 
z"/>
</svg>
