<svg xmlns="http://www.w3.org/2000/svg" width="100%" viewBox="163 0 224 150" preserveAspectRatio="xMidYMid meet">
<path fill="#F9F9FA" opacity="1.000000" stroke="none" 
	d="
M178.871567,113.172798 
	C169.163498,93.884666 168.182999,73.590530 169.569733,52.990124 
	C169.890686,48.222530 170.650375,43.376381 172.021118,38.810436 
	C174.731842,29.781025 181.385193,26.633411 190.310791,29.903522 
	C201.700363,34.076370 208.914688,43.004421 215.218689,52.738922 
	C225.606415,68.779419 230.053070,86.045334 224.842804,104.946663 
	C222.675568,112.808762 218.592438,119.635429 211.917023,124.595764 
	C203.988480,130.487244 196.140945,130.276169 188.798813,123.722771 
	C185.293854,120.594330 182.266525,116.930786 178.871567,113.172798 
M180.444885,47.239582 
	C179.432510,60.424206 179.249664,73.541313 184.003983,86.189613 
	C187.101440,94.430099 190.448730,102.580544 193.360397,110.884827 
	C194.324417,113.634285 194.278427,116.737877 194.737625,119.986664 
	C204.238037,115.628609 211.279480,108.135208 214.881012,97.548897 
	C220.902557,79.849258 209.659973,52.427090 191.872345,41.071007 
	C183.861115,35.956425 181.867645,36.894547 180.444885,47.239582 
z"/>
<path fill="#F5F5F6" opacity="1.000000" stroke="none" 
	d="
M367.211304,76.000702 
	C361.752106,75.179161 357.945007,77.380180 354.067780,81.549973 
	C358.295715,83.936394 362.179779,86.015976 365.947693,88.288170 
	C369.499969,90.430305 373.119324,92.533913 376.370697,95.085747 
	C381.666962,99.242546 382.662323,105.169876 379.515259,111.155106 
	C373.676758,122.259026 360.662048,124.237595 351.219055,116.310226 
	C355.869965,113.097343 361.085999,110.117554 365.538940,106.257431 
	C370.894226,101.615059 370.307343,98.403435 364.131439,94.642319 
	C360.303101,92.310860 356.198883,90.427330 352.404510,88.046272 
	C345.550934,83.745445 345.584534,78.501442 352.468231,74.280945 
	C356.700287,71.686203 361.318909,70.183601 366.218933,72.140663 
	C367.519989,72.660286 371.101105,73.442421 367.211304,76.000702 
z"/>
<path fill="#F7F7F8" opacity="1.000000" stroke="none" 
	d="
M311.005737,100.643326 
	C316.160461,109.609955 323.880066,114.050789 334.319580,115.495583 
	C328.867157,120.343307 323.358124,123.006950 316.425018,120.980400 
	C306.605316,118.110077 300.484558,111.363777 298.260742,101.632927 
	C296.089111,92.130470 300.269867,84.800713 308.044891,79.383156 
	C314.019226,75.220291 322.277985,77.200882 325.711700,84.262054 
	C320.554749,83.596497 315.482910,82.501106 312.833435,88.486809 
	C311.123749,92.349304 309.079102,95.927261 311.005737,100.643326 
z"/>
<path fill="#F2F3F4" opacity="1.000000" stroke="none" 
	d="
M258.486816,86.732681 
	C261.625916,86.845444 264.837585,86.571053 267.890442,87.143631 
	C277.017090,88.855385 283.083710,96.947067 281.922363,105.396126 
	C280.845062,113.234161 273.035187,119.183456 264.149536,118.934906 
	C251.379105,118.577698 240.507156,104.604164 244.172562,92.391953 
	C245.178665,89.039856 248.610306,86.138618 251.540771,83.795837 
	C252.528763,83.005981 255.408737,84.582703 257.259979,85.456909 
	C256.814453,86.130386 256.532990,86.424774 256.251495,86.719162 
	C256.996613,86.723671 257.741699,86.728172 258.486816,86.732681 
M253.866119,106.573883 
	C257.201599,110.559380 261.402100,112.519943 266.619904,111.724495 
	C272.546143,110.821037 276.203400,107.259697 276.165771,102.661301 
	C276.123962,97.547211 272.713684,93.722038 266.750977,92.873032 
	C263.520325,92.413010 260.150787,92.626602 256.870270,92.879082 
	C249.461990,93.449234 248.225693,95.695473 251.341003,102.594193 
	C251.882477,103.793274 252.694168,104.870323 253.866119,106.573883 
z"/>
<path fill="#121A2C" opacity="1.000000" stroke="none" 
	d="
M180.525085,46.806396 
	C181.867645,36.894547 183.861115,35.956425 191.872345,41.071007 
	C209.659973,52.427090 220.902557,79.849258 214.881012,97.548897 
	C211.279480,108.135208 204.238037,115.628609 194.737625,119.986664 
	C194.278427,116.737877 194.324417,113.634285 193.360397,110.884827 
	C190.448730,102.580544 187.101440,94.430099 184.003983,86.189613 
	C179.249664,73.541313 179.432510,60.424206 180.525085,46.806396 
z"/>
<path fill="#161D30" opacity="1.000000" stroke="none" 
	d="
M253.623596,106.288811 
	C252.694168,104.870323 251.882477,103.793274 251.341003,102.594193 
	C248.225693,95.695473 249.461990,93.449234 256.870270,92.879082 
	C260.150787,92.626602 263.520325,92.413010 266.750977,92.873032 
	C272.713684,93.722038 276.123962,97.547211 276.165771,102.661301 
	C276.203400,107.259697 272.546143,110.821037 266.619904,111.724495 
	C261.402100,112.519943 257.201599,110.559380 253.623596,106.288811 
z"/>
<path fill="#0F182A" opacity="1.000000" stroke="none" 
	d="
M258.307922,86.458237 
	C257.741699,86.728172 256.996613,86.723671 256.251495,86.719162 
	C256.532990,86.424774 256.814453,86.130386 257.407898,85.753990 
	C257.856201,85.842575 257.992584,86.013176 258.307922,86.458237 
z"/>
</svg>
