<svg xmlns="http://www.w3.org/2000/svg" width="100%" viewBox="17 0 104 150" preserveAspectRatio="xMidYMid meet">
<path fill="#01BC2D" opacity="1.000000" stroke="none" 
	d="
M82.866119,114.839363 
	C83.351608,109.198975 82.327309,104.600609 78.621597,100.560867 
	C75.882706,97.575111 76.815384,94.611389 80.372223,92.847687 
	C83.190704,91.450104 86.110451,89.996391 89.151329,89.354607 
	C99.966644,87.072052 109.646027,70.350182 104.333977,59.761082 
	C102.857063,56.816998 101.508720,53.673588 100.886421,50.469173 
	C100.078423,46.308491 100.055069,41.995434 99.614014,36.807545 
	C95.877304,38.153629 91.361671,39.912476 86.751633,41.373425 
	C85.002563,41.927719 83.038452,41.920017 81.168320,41.955456 
	C73.346680,42.103668 65.521652,42.297581 57.702141,42.182838 
	C55.635647,42.152512 53.381153,41.436428 51.570908,40.406273 
	C48.350330,38.573540 45.402973,36.260700 42.341335,34.148674 
	C41.733917,34.398796 41.126495,34.648918 40.519077,34.899044 
	C40.332390,37.818043 40.309254,40.759773 39.907677,43.648903 
	C39.581699,45.994118 39.392990,48.690037 38.117752,50.512905 
	C33.219753,57.514286 32.126060,71.433601 40.548367,79.813179 
	C45.860477,85.098335 51.528561,89.219452 58.984982,90.823738 
	C64.179916,91.941452 64.409767,93.832870 62.382629,98.618767 
	C60.830563,102.283051 60.553055,106.528740 59.988792,110.555092 
	C59.621319,113.177208 60.288570,116.044807 59.490105,118.472870 
	C58.897900,120.273712 56.694118,121.544609 55.208221,123.051575 
	C53.775902,121.504280 52.109409,120.104744 51.003159,118.351692 
	C50.385395,117.372726 50.698204,115.806534 50.546402,113.951759 
	C42.243080,114.723320 34.946587,112.612007 29.212339,106.502975 
	C27.163677,104.320427 25.141218,102.069855 23.456055,99.610970 
	C22.784985,98.631790 23.059526,97.004539 22.903585,95.672318 
	C24.290554,95.649429 25.993359,95.095901 27.007454,95.699493 
	C30.575670,97.823273 33.869122,100.402199 37.338715,102.699875 
	C41.403618,105.391792 45.737144,106.638161 50.779411,104.604065 
	C51.013542,102.577316 51.254211,100.493973 51.491310,98.441559 
	C32.029919,93.159149 20.057278,67.474464 30.693949,48.711327 
	C31.653214,47.019180 31.544834,44.661640 31.699944,42.595669 
	C31.797617,41.294693 31.259136,39.946545 31.353109,38.644611 
	C32.172550,27.291985 36.423378,23.663591 46.657860,28.251350 
	C54.527096,31.778854 61.775826,32.123226 69.889175,31.228401 
	C74.535606,30.715944 79.381767,32.144890 84.151726,32.529682 
	C85.336876,32.625290 86.633125,32.211182 87.778038,31.770727 
	C90.874413,30.579538 93.840485,29.003508 96.995163,28.018772 
	C106.047348,25.193129 110.421265,28.967169 108.367012,38.255852 
	C107.534088,42.022087 108.582603,44.556019 109.925819,47.913025 
	C112.328690,53.918343 114.320885,60.530357 114.431374,66.924240 
	C114.716957,83.450493 105.241493,93.403374 91.397430,98.327446 
	C91.672081,104.487572 92.090355,110.161812 92.113274,115.837631 
	C92.126060,119.007751 91.010536,122.205605 87.119865,121.993538 
	C83.169823,121.778236 82.863762,118.443222 82.866119,114.839363 
z"/>
</svg>
