<?xml version="1.0" standalone="no"?>
<!DOCTYPE svg PUBLIC "-//W3C//DTD SVG 20010904//EN"
 "http://www.w3.org/TR/2001/REC-SVG-20010904/DTD/svg10.dtd">
<svg version="1.0" xmlns="http://www.w3.org/2000/svg"
 width="420.000000pt" height="420.000000pt" viewBox="0 0 420.000000 420.000000"
 preserveAspectRatio="xMidYMid meet">
<rect x="0" y="0" width="420" height="420" rx="90" fill="#0f172a"/>
<g transform="translate(0.000000,420.000000) scale(0.100000,-0.100000)"
fill="#fafafa" stroke="none">
<path d="M1051 3668 c-57 -38 -76 -94 -141 -404 -33 -159 -79 -372 -101 -474
-22 -102 -69 -322 -104 -490 -109 -521 -163 -769 -200 -930 -64 -277 -96 -443
-102 -532 l-6 -87 31 -31 c25 -24 37 -30 54 -25 57 17 111 103 163 258 87 260
535 2103 535 2200 0 47 25 10 90 -136 165 -368 249 -517 338 -598 98 -89 99
-90 471 -60 130 10 266 18 302 18 111 -1 141 20 267 188 116 154 182 261 264
425 63 126 57 114 63 108 3 -3 23 -120 45 -259 56 -366 85 -537 170 -989 16
-91 46 -259 66 -375 58 -349 87 -447 208 -705 l81 -174 6 54 c4 30 17 118 30
195 18 109 22 178 22 310 -1 211 -12 288 -148 1010 -19 99 -55 299 -80 445
-82 469 -122 639 -192 815 -46 115 -76 159 -121 181 -45 21 -79 11 -107 -33
-11 -18 -32 -37 -47 -44 -42 -17 -103 -90 -141 -166 -74 -146 -230 -503 -264
-603 -20 -58 -39 -108 -42 -112 -4 -4 -35 -3 -70 3 -94 17 -284 -2 -456 -45
-76 -20 -140 -34 -140 -33 -23 36 -163 316 -239 477 -116 247 -204 415 -251
481 -18 25 -35 55 -39 65 -3 11 -22 35 -41 54 -47 45 -123 54 -174 18z"/>
</g>
<g transform="translate(0.000000,420.000000) scale(0.100000,-0.100000)"
fill="#4cc315" stroke="none">
<path d="M2306 2070 c-39 -12 -73 -46 -101 -101 -50 -98 -41 -173 29 -243 53
-53 95 -63 170 -42 145 43 191 228 83 334 -56 54 -116 71 -181 52z"/>
<path d="M1715 2035 c-92 -33 -147 -134 -124 -229 32 -137 195 -182 295 -82
66 66 71 165 13 245 -51 71 -112 93 -184 66z"/>
</g>
</svg>
