<svg version="1.1" xmlns="http://www.w3.org/2000/svg" xmlns:xlink="http://www.w3.org/1999/xlink" x="0px" y="0px"
	 width="100%" viewBox="1275 100 515 400" preserveAspectRatio="xMidYMid meet" xml:space="preserve">
<path fill="#fafafa" opacity="1.000000"
	d="
M1299.194580,298.894379
	C1291.891602,295.143005 1285.622559,290.839233 1283.309082,282.762512
	C1279.613281,269.860779 1287.658325,256.937653 1301.225464,254.266983
	C1304.160034,253.689316 1307.513794,251.367706 1310.161011,255.894058
	C1310.968994,257.275757 1314.721191,256.935516 1317.964478,257.540405
	C1317.964478,252.086090 1317.958618,247.316223 1317.965820,242.546402
	C1317.975952,235.885376 1318.044922,229.224014 1317.997314,222.563446
	C1317.952637,216.328964 1319.690552,211.350052 1326.880615,209.869781
	C1325.150024,207.048157 1323.626465,204.507736 1322.048706,202.001465
	C1314.847290,190.562057 1322.375610,178.765091 1330.737549,175.244034
	C1335.288940,173.327545 1340.167725,171.887970 1345.039185,171.083313
	C1367.578735,167.360291 1389.954834,168.307617 1411.464844,176.301468
	C1439.085571,186.566193 1459.315674,208.145172 1457.710449,241.389908
	C1456.708862,262.136383 1447.887207,279.605927 1429.313232,290.829773
	C1408.457642,303.432404 1385.507324,307.894073 1361.486694,308.073425
	C1354.199951,308.127838 1346.912354,308.081879 1340.345703,308.081879
	C1340.345703,318.205627 1340.401611,328.963623 1340.333618,339.720764
	C1340.209351,359.349121 1340.418701,378.992340 1339.682617,398.599060
	C1339.281616,409.280243 1328.906006,417.203400 1318.979614,415.835297
	C1308.453003,414.384460 1302.182739,405.204376 1303.588989,393.999329
	C1307.207642,365.168671 1310.634033,336.313873 1314.111938,307.465668
	C1314.249512,306.324829 1314.129395,305.152924 1314.129395,303.791443
	C1309.250732,302.206329 1304.394043,300.628326 1299.194580,298.894379
M1425.805298,256.404053
	C1430.784424,251.896698 1432.961548,246.136414 1433.284668,239.568497
	C1434.125732,222.473801 1426.230225,210.266129 1411.871826,201.858597
	C1398.194702,193.850006 1383.040649,190.888565 1367.489990,190.201294
	C1358.725952,189.813950 1349.882812,190.487900 1341.114258,191.178238
	C1334.660400,191.686356 1330.530273,195.609421 1331.507080,200.376160
	C1332.883911,207.094650 1335.319824,213.373581 1334.273315,220.676865
	C1333.500122,226.072678 1335.412109,231.833893 1335.986084,237.446793
	C1336.809937,245.500504 1337.505005,253.567383 1338.342896,262.573547
	C1353.312134,263.687469 1368.011597,265.270416 1382.746460,265.740265
	C1397.491333,266.210480 1411.876465,263.713348 1425.805298,256.404053
z"/>
<path fill="#fafafa" opacity="1.000000"
	d="
M1488.634888,286.630981
	C1502.696411,273.105743 1519.730713,269.674988 1538.140869,269.706421
	C1557.179565,269.738922 1574.322388,274.885071 1588.981567,287.193207
	C1598.439941,295.134735 1603.719849,305.082764 1602.180176,317.890839
	C1601.165649,326.329651 1597.361572,328.045410 1589.736450,324.639801
	C1577.014526,318.957855 1564.322754,312.715912 1550.968994,309.122437
	C1542.699829,306.897186 1533.153687,308.496033 1524.325195,309.567535
	C1517.517700,310.393738 1513.232666,315.804901 1509.648438,321.458374
	C1500.685059,335.596893 1497.297119,351.489014 1495.023071,367.720215
	C1494.193115,373.644226 1493.558228,379.602539 1493.056152,385.563873
	C1492.168945,396.096954 1483.751709,404.179779 1473.691772,403.960785
	C1463.667847,403.742584 1455.222412,395.309784 1455.118042,384.748444
	C1454.952515,368.004669 1457.887695,351.630280 1462.146118,335.503113
	C1463.140991,331.735657 1463.452148,328.901245 1460.436523,325.593079
	C1456.196655,320.941589 1457.493652,314.989410 1459.817993,309.998932
	C1464.027832,300.959839 1468.918945,292.227875 1473.797607,283.520081
	C1474.629761,282.034821 1476.817383,281.308929 1478.378662,280.232300
	C1479.241089,281.945404 1480.556152,283.582977 1480.857422,285.389618
	C1481.285034,287.953888 1480.966064,290.642639 1480.966064,294.042725
	C1483.765137,291.338165 1486.072632,289.108429 1488.634888,286.630981
z"/>
<path fill="#fafafa" opacity="1.000000"
	d="
M1774.967529,368.911072
	C1772.068848,383.763367 1768.521606,397.935272 1760.340454,410.477234
	C1750.078125,426.209595 1735.794312,436.252533 1717.009766,437.392914
	C1699.395264,438.462250 1682.227783,434.884796 1666.345703,426.559967
	C1653.341309,419.743591 1641.920898,411.043610 1633.202637,399.046021
	C1616.136353,375.560425 1617.404297,351.006256 1630.048096,326.533295
	C1639.810669,307.637268 1655.054688,294.338806 1675.691406,287.790741
	C1677.000000,287.375519 1678.473389,286.538971 1679.223389,285.452179
	C1685.501099,276.355255 1694.448730,272.486145 1705.120483,272.002289
	C1718.778687,271.383087 1732.040649,272.882080 1744.317505,279.574280
	C1765.931885,291.356445 1776.404175,310.003632 1776.916382,334.132477
	C1777.159180,345.562592 1775.692017,357.029022 1774.967529,368.911072
M1733.004517,399.603455
	C1740.005249,393.853210 1743.567261,386.073639 1746.012939,377.622375
	C1749.885254,364.241943 1751.065918,350.546356 1751.004028,336.679932
	C1750.936523,321.556244 1742.797852,309.599762 1728.480469,304.713470
	C1723.500122,303.013763 1718.178589,301.804565 1712.944214,301.479675
	C1705.364624,301.009216 1697.370361,300.143799 1690.181396,301.949310
	C1675.818359,305.556519 1664.705078,314.252472 1657.096191,327.421509
	C1646.317383,346.076843 1646.847534,369.855408 1664.372559,385.769501
	C1673.542236,394.096436 1683.989746,400.322083 1695.906128,403.289551
	C1708.246460,406.362518 1720.889893,408.156799 1733.004517,399.603455
z"/>
</svg>
