<svg xmlns="http://www.w3.org/2000/svg" viewBox="-22.5 -22.5 1172.1 165.1" preserveAspectRatio="xMidYMid meet">
	<!-- Hand-drawn stroke from moq.pro/app/art/underline.png, traced as underline-1.svg. -->
	<g transform="translate(0,120) scale(0.1,-0.1)" fill="#00BE2D" stroke="none">
		<path d="M10550 1069 c-87 -10 -637 -46 -1160 -74 -576 -32 -1566 -137 -4140
-441 -1967 -232 -2467 -282 -3250 -329 -362 -22 -1063 -38 -1400 -32 -319 5
-519 -3 -562 -23 -51 -24 -43 -60 19 -86 33 -14 363 -44 708 -65 244 -14 903
-7 1250 15 810 51 1348 106 3380 346 871 103 1245 146 2355 270 913 102 1326
156 1805 234 342 56 1105 185 1125 190 27 7 -63 3 -130 -5z"/>
	</g>
</svg>
